<svg xmlns="http://www.w3.org/2000/svg" viewBox="0 0 48 48" width="48" height="48" fill="none">
  <defs>
    <linearGradient id="wgpu-grad-top" x1="12" y1="6" x2="36" y2="20" gradientUnits="userSpaceOnUse">
      <stop offset="0%" stop-color="#a855f7"/>
      <stop offset="100%" stop-color="#6366f1"/>
    </linearGradient>
    <linearGradient id="wgpu-grad-left" x1="8" y1="18" x2="24" y2="42" gradientUnits="userSpaceOnUse">
      <stop offset="0%" stop-color="#7c3aed"/>
      <stop offset="100%" stop-color="#4338ca"/>
    </linearGradient>
    <linearGradient id="wgpu-grad-right" x1="24" y1="18" x2="40" y2="42" gradientUnits="userSpaceOnUse">
      <stop offset="0%" stop-color="#9333ea"/>
      <stop offset="100%" stop-color="#4f46e5"/>
    </linearGradient>
    <filter id="wgpu-glow" x="2" y="2" width="44" height="44" filterUnits="userSpaceOnUse">
      <feGaussianBlur stdDeviation="1.5" result="blur"/>
      <feComposite in="SourceGraphic" in2="blur" operator="over"/>
    </filter>
  </defs>

  <g filter="url(#wgpu-glow)">
    <!-- Top Face -->
    <path d="M24 6L40 15.24V15.5L24 24.5L8 15.5V15.24L24 6Z" fill="url(#wgpu-grad-top)" stroke="#c084fc" stroke-width="1.2" stroke-linejoin="round"/>
    
    <!-- Left Face -->
    <path d="M8 15.5L24 24.5V42L8 33V15.5Z" fill="url(#wgpu-grad-left)" stroke="#818cf8" stroke-width="1.2" stroke-linejoin="round"/>
    
    <!-- Right Face -->
    <path d="M24 24.5L40 15.5V33L24 42V24.5Z" fill="url(#wgpu-grad-right)" stroke="#a855f7" stroke-width="1.2" stroke-linejoin="round"/>
    
    <!-- Inner 3D Axis Grid -->
    <path d="M24 24.5V6M24 24.5L8 33M24 24.5L40 33" stroke="#ffffff" stroke-width="1.5" stroke-linecap="round" stroke-opacity="0.85"/>
    <circle cx="24" cy="24.5" r="2.5" fill="#38bdf8"/>
  </g>
</svg>
